<svg width="1284" height="644" viewBox="0 0 1284 644" fill="none" xmlns="http://www.w3.org/2000/svg">
<mask id="mask0_1454_4602" style="mask-type:luminance" maskUnits="userSpaceOnUse" x="2" y="2" width="1280" height="640">
<path d="M1282 2H2V642H1282V2Z" fill="white"/>
</mask>
<g mask="url(#mask0_1454_4602)">
<mask id="mask1_1454_4602" style="mask-type:luminance" maskUnits="userSpaceOnUse" x="-33" y="2" width="1724" height="985">
<path d="M1691 2H-33V987H1691V2Z" fill="white"/>
</mask>
<g mask="url(#mask1_1454_4602)">
<path d="M145.243 420.524C229.585 420.524 297.958 351.076 297.958 265.408C297.958 179.739 229.585 110.291 145.243 110.291C60.9007 110.291 -7.47217 179.739 -7.47217 265.408C-7.47217 351.076 60.9007 420.524 145.243 420.524Z" fill="#1878FF" stroke="#1878FF" stroke-width="2" stroke-miterlimit="10"/>
<path d="M1021.73 588.965C1106.07 588.965 1174.44 519.517 1174.44 433.849C1174.44 348.18 1106.07 278.732 1021.73 278.732C937.386 278.732 869.014 348.18 869.014 433.849C869.014 519.517 937.386 588.965 1021.73 588.965Z" fill="#1878FF" stroke="#1878FF" stroke-width="2" stroke-miterlimit="10"/>
<path d="M1253.45 88.0107C1284.43 88.0107 1309.54 62.503 1309.54 31.0376C1309.54 -0.427803 1284.43 -25.9355 1253.45 -25.9355C1222.47 -25.9355 1197.36 -0.427803 1197.36 31.0376C1197.36 62.503 1222.47 88.0107 1253.45 88.0107Z" fill="#1878FF" stroke="#1878FF" stroke-width="2" stroke-miterlimit="10"/>
<path d="M191.284 637.14C363.896 670.312 530.301 555.072 562.959 379.746" stroke="#1878FF" stroke-width="2" stroke-miterlimit="10"/>
<path d="M1067.53 31.315C1079.28 -31.7734 1038.45 -92.5935 976.34 -104.529" stroke="#1878FF" stroke-width="2" stroke-miterlimit="10"/>
<path d="M1067.53 31.3152C1079.28 -31.7732 1139.16 -73.2399 1201.27 -61.304" stroke="#1878FF" stroke-width="2" stroke-miterlimit="10"/>
<path d="M1200.81 -61.3848C1238.02 -54.2335 1262.48 -17.794 1255.44 20.0045" stroke="#1878FF" stroke-width="2" stroke-miterlimit="10"/>
<path d="M563.367 379.825C590.054 236.556 726.032 142.388 867.082 169.494" stroke="#1878FF" stroke-width="2" stroke-miterlimit="10"/>
<path d="M563.307 379.813C589.994 236.544 497.283 98.428 356.233 71.3223" stroke="#1878FF" stroke-width="2" stroke-miterlimit="10"/>
<path d="M356.22 71.3117C262.985 53.3947 201.704 -37.9011 219.344 -132.602" stroke="#1878FF" stroke-width="2" stroke-miterlimit="10"/>
<path d="M356.219 71.3197C262.985 53.4027 173.102 115.647 155.463 210.349" stroke="#1878FF" stroke-width="2" stroke-miterlimit="10"/>
<path d="M866.861 169.451C960.095 187.368 1021.38 278.664 1003.74 373.364" stroke="#1878FF" stroke-width="2" stroke-miterlimit="10"/>
<path d="M866.862 169.443C960.097 187.36 1049.98 125.115 1067.62 30.4141" stroke="#1878FF" stroke-width="2" stroke-miterlimit="10"/>
<path d="M1159.26 489.332C1283.32 529.208 1415.72 459.377 1454.98 333.361C1494.24 207.345 1425.49 72.8635 1301.42 32.9883" stroke="#1878FF" stroke-width="2" stroke-miterlimit="10"/>
<path d="M865.568 -109.047C713.86 -103.626 595.203 25.6866 600.541 179.781C605.878 333.875 733.189 454.398 884.896 448.977" stroke="#1878FF" stroke-width="2" stroke-miterlimit="10"/>
<path d="M162.996 651.822C177.874 651.822 189.935 639.571 189.935 624.46C189.935 609.348 177.874 597.098 162.996 597.098C148.119 597.098 136.058 609.348 136.058 624.46C136.058 639.571 148.119 651.822 162.996 651.822Z" fill="#1878FF" stroke="#1878FF" stroke-width="2" stroke-miterlimit="10"/>
</g>
</g>
<path d="M2 1H1V2V642V643H2H1282H1283V642V2V1H1282H2Z" fill="#B5C9FF" fill-opacity="0.9" stroke="black" stroke-width="2"/>
<g clip-path="url(#clip0_1454_4602)">
<path d="M1031.75 421.271H1016V538.867H1031.75V421.271Z" fill="black"/>
<path d="M1090.38 495.968H1082.27C1065.52 495.968 1051.9 482.453 1051.9 465.838V421.234H1098.5C1115.25 421.234 1128.88 434.749 1128.88 451.365V463.029H1113.13V451.365C1113.13 443.367 1106.57 436.856 1098.5 436.856H1067.65V465.838C1067.65 473.835 1074.21 480.347 1082.27 480.347H1090.38V495.968ZM1130.45 508.635V494.6C1130.45 477.985 1116.83 464.47 1100.07 464.47H1090.38V480.091H1100.07C1108.14 480.091 1114.7 486.603 1114.7 494.6V508.635C1114.7 516.633 1108.14 523.144 1100.07 523.144H1067.65V496.99H1051.9V538.766H1100.07C1116.83 538.766 1130.45 525.251 1130.45 508.635Z" fill="black"/>
<path d="M1184.09 540.999H1181.47C1161.13 540.999 1144.57 524.575 1144.57 504.394V455.596C1144.57 435.414 1161.13 418.99 1181.47 418.99H1184.09C1204.44 418.99 1221 435.414 1221 455.596H1205.25C1205.25 444.032 1195.76 434.621 1184.1 434.621H1181.48C1169.82 434.621 1160.33 444.032 1160.33 455.596V504.394C1160.33 515.957 1169.82 525.369 1181.48 525.369H1184.1C1195.76 525.369 1205.25 515.957 1205.25 504.394H1221C1221 524.575 1204.44 540.999 1184.09 540.999Z" fill="black"/>
<path d="M1184.09 540.999H1181.47C1161.13 540.999 1144.57 524.575 1144.57 504.394V455.596C1144.57 435.414 1161.13 418.99 1181.47 418.99H1184.09C1204.44 418.99 1221 435.414 1221 455.596H1205.25C1205.25 444.032 1195.76 434.621 1184.1 434.621H1181.48C1169.82 434.621 1160.33 444.032 1160.33 455.596V504.394C1160.33 515.957 1169.82 525.369 1181.48 525.369H1184.1C1195.76 525.369 1205.25 515.957 1205.25 504.394H1221C1221 524.575 1204.44 540.999 1184.09 540.999Z" fill="black"/>
</g>
<path d="M45.568 371.368V366.728H80.032V371.368H65.76V413H60.736V371.368H45.568ZM86.6825 413V365.448H91.5145V384.776C92.0905 383.837 92.8585 382.963 93.8185 382.152C94.7998 381.341 95.9732 380.691 97.3385 380.2C98.7252 379.688 100.304 379.432 102.075 379.432C104.251 379.432 106.203 379.827 107.931 380.616C109.68 381.405 111.067 382.525 112.091 383.976C113.115 385.427 113.627 387.133 113.627 389.096V413H108.635V390.216C108.635 388.125 107.92 386.504 106.491 385.352C105.061 384.179 103.173 383.592 100.827 383.592C99.2265 383.592 97.7225 383.859 96.3145 384.392C94.9278 384.904 93.8078 385.683 92.9545 386.728C92.1012 387.752 91.6745 389.064 91.6745 390.664V413H86.6825ZM126.635 397.608C126.635 399.827 126.998 401.843 127.724 403.656C128.449 405.469 129.569 406.92 131.084 408.008C132.598 409.096 134.518 409.64 136.844 409.64C139.084 409.64 141.014 409.117 142.636 408.072C144.257 407.005 145.27 405.501 145.676 403.56H150.476C150.07 405.779 149.185 407.635 147.82 409.128C146.476 410.621 144.844 411.752 142.924 412.52C141.025 413.267 139.02 413.64 136.908 413.64C133.878 413.64 131.201 412.979 128.876 411.656C126.572 410.312 124.769 408.381 123.468 405.864C122.188 403.347 121.548 400.317 121.548 396.776C121.548 393.256 122.134 390.184 123.308 387.56C124.481 384.915 126.177 382.877 128.396 381.448C130.636 379.997 133.334 379.272 136.492 379.272C139.542 379.272 142.124 379.933 144.236 381.256C146.348 382.557 147.958 384.424 149.068 386.856C150.177 389.288 150.732 392.189 150.732 395.56V397.608H126.635ZM126.668 394.056H145.868C145.868 392.008 145.526 390.163 144.844 388.52C144.161 386.877 143.126 385.576 141.74 384.616C140.353 383.656 138.593 383.176 136.46 383.176C134.198 383.176 132.342 383.72 130.892 384.808C129.462 385.875 128.396 387.24 127.692 388.904C126.988 390.568 126.646 392.285 126.668 394.056ZM190.382 413.64C188.227 413.64 186.147 413.373 184.142 412.84C182.158 412.285 180.345 411.475 178.702 410.408C177.081 409.341 175.737 408.029 174.67 406.472C173.603 404.893 172.91 403.059 172.59 400.968H177.87C178.297 402.824 179.107 404.381 180.302 405.64C181.497 406.877 182.969 407.816 184.718 408.456C186.467 409.075 188.345 409.384 190.35 409.384C192.654 409.384 194.702 409.053 196.494 408.392C198.286 407.731 199.694 406.792 200.718 405.576C201.763 404.36 202.286 402.941 202.286 401.32C202.286 399.848 201.977 398.568 201.358 397.48C200.739 396.392 199.833 395.485 198.638 394.76C197.443 394.013 195.961 393.427 194.19 393L184.846 390.76C181.454 389.992 178.798 388.68 176.878 386.824C174.979 384.947 174.019 382.483 173.998 379.432C173.998 376.829 174.681 374.536 176.046 372.552C177.433 370.547 179.331 368.979 181.742 367.848C184.174 366.717 186.969 366.152 190.126 366.152C193.774 366.152 196.814 366.781 199.246 368.04C201.699 369.299 203.555 370.941 204.814 372.968C206.073 374.995 206.702 377.139 206.702 379.4H201.486C201.294 377.181 200.643 375.421 199.534 374.12C198.425 372.819 197.049 371.891 195.406 371.336C193.785 370.781 192.025 370.504 190.126 370.504C188.803 370.504 187.491 370.685 186.19 371.048C184.91 371.389 183.747 371.912 182.702 372.616C181.657 373.32 180.825 374.205 180.206 375.272C179.587 376.339 179.278 377.587 179.278 379.016C179.278 380.765 179.875 382.195 181.07 383.304C182.286 384.392 184.462 385.341 187.598 386.152L196.654 388.36C198.83 388.851 200.611 389.555 201.998 390.472C203.406 391.389 204.505 392.445 205.294 393.64C206.083 394.813 206.627 396.051 206.926 397.352C207.246 398.653 207.406 399.944 207.406 401.224C207.406 403.507 206.745 405.587 205.422 407.464C204.099 409.341 202.169 410.845 199.63 411.976C197.091 413.085 194.009 413.64 190.382 413.64ZM229.547 413.64C226.56 413.64 223.936 413 221.675 411.72C219.435 410.419 217.696 408.499 216.459 405.96C215.221 403.421 214.603 400.296 214.603 396.584C214.603 393.128 215.168 390.099 216.299 387.496C217.451 384.893 219.136 382.877 221.355 381.448C223.573 379.997 226.315 379.272 229.579 379.272C232.565 379.272 235.157 379.933 237.355 381.256C239.573 382.557 241.291 384.499 242.507 387.08C243.744 389.64 244.363 392.808 244.363 396.584C244.363 399.955 243.808 402.92 242.699 405.48C241.589 408.04 239.936 410.045 237.739 411.496C235.563 412.925 232.832 413.64 229.547 413.64ZM229.579 409.608C231.648 409.608 233.408 409.096 234.859 408.072C236.331 407.048 237.451 405.555 238.219 403.592C239.008 401.629 239.403 399.251 239.403 396.456C239.403 393.939 239.061 391.688 238.379 389.704C237.696 387.72 236.629 386.163 235.179 385.032C233.728 383.88 231.861 383.304 229.579 383.304C227.467 383.304 225.664 383.816 224.171 384.84C222.699 385.843 221.568 387.325 220.779 389.288C219.989 391.251 219.595 393.64 219.595 396.456C219.595 398.973 219.936 401.224 220.619 403.208C221.323 405.171 222.411 406.728 223.883 407.88C225.355 409.032 227.253 409.608 229.579 409.608ZM260.239 413.352C258.66 413.352 257.359 413.128 256.335 412.68C255.332 412.211 254.543 411.571 253.967 410.76C253.412 409.949 253.028 409.021 252.815 407.976C252.602 406.931 252.495 405.832 252.495 404.68V365.448H257.423V404.264C257.423 406.077 257.764 407.411 258.447 408.264C259.13 409.096 260.026 409.544 261.135 409.608L262.991 409.64V412.904C262.522 413.053 262.042 413.16 261.551 413.224C261.06 413.309 260.623 413.352 260.239 413.352ZM276.595 379.912V413H271.731V379.912H276.595ZM276.755 366.76V372.264H271.507V366.76H276.755ZM299.367 413.64C295.1 413.64 291.708 412.189 289.191 409.288C286.674 406.365 285.415 402.045 285.415 396.328C285.415 392.893 285.916 389.907 286.919 387.368C287.922 384.808 289.426 382.824 291.431 381.416C293.458 379.987 295.986 379.272 299.015 379.272C300.722 379.272 302.215 379.496 303.495 379.944C304.775 380.371 305.863 380.915 306.759 381.576C307.655 382.237 308.38 382.909 308.935 383.592C309.49 384.275 309.884 384.861 310.119 385.352V365.448H315.175V413H311.239L310.727 406.216C310.535 406.792 310.215 407.496 309.767 408.328C309.319 409.16 308.668 409.981 307.815 410.792C306.962 411.603 305.842 412.285 304.455 412.84C303.068 413.373 301.372 413.64 299.367 413.64ZM300.135 409.672C303.762 409.672 306.332 408.605 307.847 406.472C309.362 404.317 310.119 400.829 310.119 396.008C310.098 393.341 309.756 391.059 309.095 389.16C308.434 387.261 307.388 385.811 305.959 384.808C304.551 383.784 302.663 383.272 300.295 383.272C297.372 383.272 295.004 384.296 293.191 386.344C291.399 388.392 290.503 391.613 290.503 396.008C290.503 400.275 291.303 403.624 292.903 406.056C294.524 408.467 296.935 409.672 300.135 409.672ZM331.47 379.912V413H326.606V379.912H331.47ZM331.63 366.76V372.264H326.382V366.76H331.63ZM358.85 383.656H351.362V405C351.362 406.28 351.479 407.219 351.714 407.816C351.97 408.392 352.407 408.765 353.026 408.936C353.666 409.085 354.551 409.16 355.682 409.16H359.074V412.616C358.669 412.765 358.061 412.893 357.25 413C356.461 413.085 355.511 413.128 354.402 413.128C352.29 413.128 350.647 412.829 349.474 412.232C348.322 411.635 347.511 410.749 347.042 409.576C346.573 408.403 346.338 406.931 346.338 405.16V383.656H340.962V379.912H346.466L347.65 370.376H351.362V379.88H358.85V383.656ZM370.81 423.56C368.954 423.56 367.695 423.432 367.034 423.176C366.372 422.941 366.042 422.824 366.042 422.824V419.56L369.434 419.592C370.607 419.635 371.588 419.549 372.378 419.336C373.188 419.123 373.839 418.824 374.33 418.44C374.82 418.077 375.204 417.661 375.482 417.192C375.78 416.744 376.026 416.296 376.218 415.848L377.53 412.36L364.602 379.912H369.658L379.93 406.536L390.074 379.912H394.97L380.89 416.104C380.1 418.024 379.204 419.517 378.202 420.584C377.22 421.672 376.111 422.44 374.874 422.888C373.636 423.336 372.282 423.56 370.81 423.56ZM422.22 379.912V413H417.356V379.912H422.22ZM422.38 366.76V372.264H417.132V366.76H422.38ZM433.558 413V379.912H438.358V384.744C439.232 383.272 440.448 381.992 442.006 380.904C443.584 379.816 445.654 379.272 448.214 379.272C449.451 379.272 450.699 379.475 451.958 379.88C453.216 380.285 454.368 380.893 455.414 381.704C456.459 382.515 457.259 383.517 457.814 384.712C458.838 383.048 460.224 381.725 461.974 380.744C463.723 379.763 465.707 379.272 467.926 379.272C469.078 379.272 470.272 379.443 471.51 379.784C472.768 380.125 473.942 380.733 475.03 381.608C476.118 382.461 476.992 383.688 477.654 385.288C478.336 386.867 478.678 388.904 478.678 391.4V413H473.686V391.848C473.686 389.651 473.344 387.965 472.662 386.792C471.979 385.597 471.094 384.765 470.006 384.296C468.918 383.827 467.755 383.592 466.518 383.592C465.408 383.592 464.235 383.805 462.998 384.232C461.782 384.637 460.736 385.352 459.862 386.376C459.008 387.4 458.582 388.819 458.582 390.632V413H453.59V389.864C453.59 388.477 453.216 387.325 452.47 386.408C451.744 385.469 450.838 384.765 449.75 384.296C448.662 383.827 447.574 383.592 446.486 383.592C445.291 383.592 444.075 383.827 442.838 384.296C441.622 384.765 440.598 385.523 439.766 386.568C438.955 387.613 438.55 388.968 438.55 390.632V413H433.558ZM488.37 423.304V379.912H493.33L493.426 385.96C493.746 385.299 494.194 384.584 494.77 383.816C495.367 383.048 496.114 382.323 497.01 381.64C497.906 380.936 498.962 380.371 500.178 379.944C501.415 379.496 502.834 379.272 504.434 379.272C507.122 379.272 509.49 379.869 511.538 381.064C513.586 382.259 515.175 384.093 516.306 386.568C517.458 389.043 518.034 392.179 518.034 395.976C518.034 399.688 517.49 402.867 516.402 405.512C515.335 408.136 513.767 410.152 511.698 411.56C509.629 412.947 507.101 413.64 504.114 413.64C502.514 413.64 501.117 413.416 499.922 412.968C498.727 412.52 497.703 411.933 496.85 411.208C495.997 410.483 495.293 409.736 494.738 408.968C494.183 408.179 493.735 407.432 493.394 406.728V423.304H488.37ZM503.282 409.64C506.205 409.64 508.573 408.541 510.386 406.344C512.221 404.147 513.138 400.755 513.138 396.168C513.138 392.243 512.306 389.117 510.642 386.792C508.999 384.445 506.546 383.272 503.282 383.272C500.039 383.272 497.565 384.456 495.858 386.824C494.173 389.192 493.33 392.307 493.33 396.168C493.33 398.685 493.703 400.968 494.45 403.016C495.218 405.043 496.338 406.653 497.81 407.848C499.282 409.043 501.106 409.64 503.282 409.64ZM533.927 413.352C532.348 413.352 531.047 413.128 530.023 412.68C529.02 412.211 528.231 411.571 527.655 410.76C527.1 409.949 526.716 409.021 526.503 407.976C526.289 406.931 526.183 405.832 526.183 404.68V365.448H531.111V404.264C531.111 406.077 531.452 407.411 532.135 408.264C532.817 409.096 533.713 409.544 534.823 409.608L536.679 409.64V412.904C536.209 413.053 535.729 413.16 535.239 413.224C534.748 413.309 534.311 413.352 533.927 413.352ZM547.51 397.608C547.51 399.827 547.873 401.843 548.599 403.656C549.324 405.469 550.444 406.92 551.959 408.008C553.473 409.096 555.393 409.64 557.719 409.64C559.959 409.64 561.889 409.117 563.511 408.072C565.132 407.005 566.145 405.501 566.551 403.56H571.351C570.945 405.779 570.06 407.635 568.695 409.128C567.351 410.621 565.719 411.752 563.799 412.52C561.9 413.267 559.895 413.64 557.783 413.64C554.753 413.64 552.076 412.979 549.751 411.656C547.447 410.312 545.644 408.381 544.343 405.864C543.063 403.347 542.423 400.317 542.423 396.776C542.423 393.256 543.009 390.184 544.183 387.56C545.356 384.915 547.052 382.877 549.271 381.448C551.511 379.997 554.209 379.272 557.367 379.272C560.417 379.272 562.999 379.933 565.111 381.256C567.223 382.557 568.833 384.424 569.943 386.856C571.052 389.288 571.607 392.189 571.607 395.56V397.608H547.51ZM547.543 394.056H566.743C566.743 392.008 566.401 390.163 565.719 388.52C565.036 386.877 564.001 385.576 562.615 384.616C561.228 383.656 559.468 383.176 557.335 383.176C555.073 383.176 553.217 383.72 551.767 384.808C550.337 385.875 549.271 387.24 548.567 388.904C547.863 390.568 547.521 392.285 547.543 394.056ZM580.12 413V379.912H584.92V384.744C585.795 383.272 587.011 381.992 588.568 380.904C590.147 379.816 592.216 379.272 594.776 379.272C596.013 379.272 597.261 379.475 598.52 379.88C599.779 380.285 600.931 380.893 601.976 381.704C603.021 382.515 603.821 383.517 604.376 384.712C605.4 383.048 606.787 381.725 608.536 380.744C610.285 379.763 612.269 379.272 614.488 379.272C615.64 379.272 616.835 379.443 618.072 379.784C619.331 380.125 620.504 380.733 621.592 381.608C622.68 382.461 623.555 383.688 624.216 385.288C624.899 386.867 625.24 388.904 625.24 391.4V413H620.248V391.848C620.248 389.651 619.907 387.965 619.224 386.792C618.541 385.597 617.656 384.765 616.568 384.296C615.48 383.827 614.317 383.592 613.08 383.592C611.971 383.592 610.797 383.805 609.56 384.232C608.344 384.637 607.299 385.352 606.424 386.376C605.571 387.4 605.144 388.819 605.144 390.632V413H600.152V389.864C600.152 388.477 599.779 387.325 599.032 386.408C598.307 385.469 597.4 384.765 596.312 384.296C595.224 383.827 594.136 383.592 593.048 383.592C591.853 383.592 590.637 383.827 589.4 384.296C588.184 384.765 587.16 385.523 586.328 386.568C585.517 387.613 585.112 388.968 585.112 390.632V413H580.12ZM638.26 397.608C638.26 399.827 638.623 401.843 639.349 403.656C640.074 405.469 641.194 406.92 642.709 408.008C644.223 409.096 646.143 409.64 648.469 409.64C650.709 409.64 652.639 409.117 654.261 408.072C655.882 407.005 656.895 405.501 657.301 403.56H662.101C661.695 405.779 660.81 407.635 659.445 409.128C658.101 410.621 656.469 411.752 654.549 412.52C652.65 413.267 650.645 413.64 648.533 413.64C645.503 413.64 642.826 412.979 640.501 411.656C638.197 410.312 636.394 408.381 635.093 405.864C633.813 403.347 633.173 400.317 633.173 396.776C633.173 393.256 633.759 390.184 634.933 387.56C636.106 384.915 637.802 382.877 640.021 381.448C642.261 379.997 644.959 379.272 648.117 379.272C651.167 379.272 653.749 379.933 655.861 381.256C657.973 382.557 659.583 384.424 660.693 386.856C661.802 389.288 662.357 392.189 662.357 395.56V397.608H638.26ZM638.293 394.056H657.493C657.493 392.008 657.151 390.163 656.469 388.52C655.786 386.877 654.751 385.576 653.365 384.616C651.978 383.656 650.218 383.176 648.085 383.176C645.823 383.176 643.967 383.72 642.517 384.808C641.087 385.875 640.021 387.24 639.317 388.904C638.613 390.568 638.271 392.285 638.293 394.056ZM670.87 413V379.912H675.67V384.744C676.225 383.784 676.982 382.899 677.942 382.088C678.923 381.277 680.107 380.627 681.494 380.136C682.902 379.645 684.481 379.4 686.23 379.4C688.363 379.4 690.305 379.827 692.054 380.68C693.825 381.512 695.233 382.813 696.278 384.584C697.323 386.355 697.846 388.627 697.846 391.4V413H692.854V391.848C692.854 389.032 692.139 386.952 690.71 385.608C689.281 384.264 687.393 383.592 685.046 383.592C683.446 383.592 681.942 383.848 680.534 384.36C679.126 384.872 677.995 385.651 677.142 386.696C676.289 387.741 675.862 389.053 675.862 390.632V413H670.87ZM721.788 383.656H714.3V405C714.3 406.28 714.417 407.219 714.652 407.816C714.908 408.392 715.345 408.765 715.964 408.936C716.604 409.085 717.489 409.16 718.62 409.16H722.012V412.616C721.606 412.765 720.998 412.893 720.188 413C719.398 413.085 718.449 413.128 717.34 413.128C715.228 413.128 713.585 412.829 712.412 412.232C711.26 411.635 710.449 410.749 709.98 409.576C709.51 408.403 709.276 406.931 709.276 405.16V383.656H703.9V379.912H709.404L710.588 370.376H714.3V379.88H721.788V383.656ZM739.551 413.64C737.396 413.64 735.508 413.267 733.887 412.52C732.266 411.752 730.996 410.664 730.079 409.256C729.183 407.848 728.735 406.152 728.735 404.168C728.735 400.499 729.983 397.779 732.479 396.008C734.996 394.237 739.06 393.277 744.671 393.128L751.071 392.936V390.184C751.071 388.029 750.41 386.312 749.087 385.032C747.786 383.731 745.77 383.091 743.039 383.112C740.991 383.112 739.21 383.592 737.695 384.552C736.202 385.491 735.252 387.005 734.847 389.096H730.303C730.431 387.027 731.018 385.267 732.063 383.816C733.108 382.344 734.58 381.224 736.479 380.456C738.378 379.667 740.65 379.272 743.295 379.272C746.026 379.272 748.319 379.677 750.175 380.488C752.052 381.277 753.471 382.472 754.431 384.072C755.391 385.651 755.871 387.613 755.871 389.96V413H751.583L751.231 406.632C749.908 409.256 748.223 411.08 746.175 412.104C744.148 413.128 741.94 413.64 739.551 413.64ZM740.959 409.896C742.154 409.896 743.338 409.683 744.511 409.256C745.706 408.829 746.794 408.243 747.775 407.496C748.756 406.749 749.546 405.917 750.143 405C750.74 404.083 751.05 403.144 751.071 402.184V396.296L745.727 396.392C742.932 396.435 740.639 396.712 738.847 397.224C737.076 397.736 735.754 398.525 734.879 399.592C734.026 400.637 733.599 402.013 733.599 403.72C733.599 405.661 734.282 407.176 735.647 408.264C737.012 409.352 738.783 409.896 740.959 409.896ZM780.725 383.656H773.237V405C773.237 406.28 773.354 407.219 773.589 407.816C773.845 408.392 774.282 408.765 774.901 408.936C775.541 409.085 776.426 409.16 777.557 409.16H780.949V412.616C780.544 412.765 779.936 412.893 779.125 413C778.336 413.085 777.386 413.128 776.277 413.128C774.165 413.128 772.522 412.829 771.349 412.232C770.197 411.635 769.386 410.749 768.917 409.576C768.448 408.403 768.213 406.931 768.213 405.16V383.656H762.837V379.912H768.341L769.525 370.376H773.237V379.88H780.725V383.656ZM795.283 379.912V413H790.419V379.912H795.283ZM795.443 366.76V372.264H790.195V366.76H795.443ZM819.047 413.64C816.06 413.64 813.436 413 811.175 411.72C808.935 410.419 807.196 408.499 805.959 405.96C804.721 403.421 804.103 400.296 804.103 396.584C804.103 393.128 804.668 390.099 805.799 387.496C806.951 384.893 808.636 382.877 810.855 381.448C813.073 379.997 815.815 379.272 819.079 379.272C822.065 379.272 824.657 379.933 826.855 381.256C829.073 382.557 830.791 384.499 832.007 387.08C833.244 389.64 833.863 392.808 833.863 396.584C833.863 399.955 833.308 402.92 832.199 405.48C831.089 408.04 829.436 410.045 827.239 411.496C825.063 412.925 822.332 413.64 819.047 413.64ZM819.079 409.608C821.148 409.608 822.908 409.096 824.359 408.072C825.831 407.048 826.951 405.555 827.719 403.592C828.508 401.629 828.903 399.251 828.903 396.456C828.903 393.939 828.561 391.688 827.879 389.704C827.196 387.72 826.129 386.163 824.679 385.032C823.228 383.88 821.361 383.304 819.079 383.304C816.967 383.304 815.164 383.816 813.671 384.84C812.199 385.843 811.068 387.325 810.279 389.288C809.489 391.251 809.095 393.64 809.095 396.456C809.095 398.973 809.436 401.224 810.119 403.208C810.823 405.171 811.911 406.728 813.383 407.88C814.855 409.032 816.753 409.608 819.079 409.608ZM841.995 413V379.912H846.795V384.744C847.35 383.784 848.107 382.899 849.067 382.088C850.048 381.277 851.232 380.627 852.619 380.136C854.027 379.645 855.606 379.4 857.355 379.4C859.488 379.4 861.43 379.827 863.179 380.68C864.95 381.512 866.358 382.813 867.403 384.584C868.448 386.355 868.971 388.627 868.971 391.4V413H863.979V391.848C863.979 389.032 863.264 386.952 861.835 385.608C860.406 384.264 858.518 383.592 856.171 383.592C854.571 383.592 853.067 383.848 851.659 384.36C850.251 384.872 849.12 385.651 848.267 386.696C847.414 387.741 846.987 389.053 846.987 390.632V413H841.995ZM61.984 477.64C58.9973 477.64 56.3733 477 54.112 475.72C51.872 474.419 50.1333 472.499 48.896 469.96C47.6587 467.421 47.04 464.296 47.04 460.584C47.04 457.128 47.6053 454.099 48.736 451.496C49.888 448.893 51.5733 446.877 53.792 445.448C56.0107 443.997 58.752 443.272 62.016 443.272C65.0027 443.272 67.5947 443.933 69.792 445.256C72.0107 446.557 73.728 448.499 74.944 451.08C76.1813 453.64 76.8 456.808 76.8 460.584C76.8 463.955 76.2453 466.92 75.136 469.48C74.0267 472.04 72.3733 474.045 70.176 475.496C68 476.925 65.2693 477.64 61.984 477.64ZM62.016 473.608C64.0853 473.608 65.8453 473.096 67.296 472.072C68.768 471.048 69.888 469.555 70.656 467.592C71.4453 465.629 71.84 463.251 71.84 460.456C71.84 457.939 71.4987 455.688 70.816 453.704C70.1333 451.72 69.0667 450.163 67.616 449.032C66.1653 447.88 64.2987 447.304 62.016 447.304C59.904 447.304 58.1013 447.816 56.608 448.84C55.136 449.843 54.0053 451.325 53.216 453.288C52.4267 455.251 52.032 457.64 52.032 460.456C52.032 462.973 52.3733 465.224 53.056 467.208C53.76 469.171 54.848 470.728 56.32 471.88C57.792 473.032 59.6907 473.608 62.016 473.608ZM101.83 443.912V447.656H93.5095V477H88.5175V447.656H81.2855V443.912H88.5175V438.664C88.5175 436.061 89.1575 434.088 90.4375 432.744C91.7175 431.4 93.6695 430.728 96.2935 430.728H102.15V434.376H97.0615C95.6535 434.376 94.6935 434.76 94.1815 435.528C93.6908 436.275 93.4455 437.405 93.4455 438.92V443.912H101.83ZM140.725 447.656H133.237V469C133.237 470.28 133.354 471.219 133.589 471.816C133.845 472.392 134.282 472.765 134.901 472.936C135.541 473.085 136.426 473.16 137.557 473.16H140.949V476.616C140.544 476.765 139.936 476.893 139.125 477C138.336 477.085 137.386 477.128 136.277 477.128C134.165 477.128 132.522 476.829 131.349 476.232C130.197 475.635 129.386 474.749 128.917 473.576C128.448 472.403 128.213 470.931 128.213 469.16V447.656H122.837V443.912H128.341L129.525 434.376H133.237V443.88H140.725V447.656ZM149.683 477V429.448H154.515V448.776C155.091 447.837 155.859 446.963 156.819 446.152C157.8 445.341 158.973 444.691 160.339 444.2C161.725 443.688 163.304 443.432 165.075 443.432C167.251 443.432 169.203 443.827 170.931 444.616C172.68 445.405 174.067 446.525 175.091 447.976C176.115 449.427 176.627 451.133 176.627 453.096V477H171.635V454.216C171.635 452.125 170.92 450.504 169.491 449.352C168.061 448.179 166.173 447.592 163.827 447.592C162.227 447.592 160.723 447.859 159.315 448.392C157.928 448.904 156.808 449.683 155.955 450.728C155.101 451.752 154.675 453.064 154.675 454.664V477H149.683ZM189.635 461.608C189.635 463.827 189.998 465.843 190.724 467.656C191.449 469.469 192.569 470.92 194.084 472.008C195.598 473.096 197.518 473.64 199.844 473.64C202.084 473.64 204.014 473.117 205.636 472.072C207.257 471.005 208.27 469.501 208.676 467.56H213.476C213.07 469.779 212.185 471.635 210.82 473.128C209.476 474.621 207.844 475.752 205.924 476.52C204.025 477.267 202.02 477.64 199.908 477.64C196.878 477.64 194.201 476.979 191.876 475.656C189.572 474.312 187.769 472.381 186.468 469.864C185.188 467.347 184.548 464.317 184.548 460.776C184.548 457.256 185.134 454.184 186.308 451.56C187.481 448.915 189.177 446.877 191.396 445.448C193.636 443.997 196.334 443.272 199.492 443.272C202.542 443.272 205.124 443.933 207.236 445.256C209.348 446.557 210.958 448.424 212.068 450.856C213.177 453.288 213.732 456.189 213.732 459.56V461.608H189.635ZM189.668 458.056H208.868C208.868 456.008 208.526 454.163 207.844 452.52C207.161 450.877 206.126 449.576 204.74 448.616C203.353 447.656 201.593 447.176 199.46 447.176C197.198 447.176 195.342 447.72 193.892 448.808C192.462 449.875 191.396 451.24 190.692 452.904C189.988 454.568 189.646 456.285 189.668 458.056ZM238.118 430.728H243.11V477H238.118V430.728ZM254.558 477V443.912H259.358V448.744C259.912 447.784 260.67 446.899 261.63 446.088C262.611 445.277 263.795 444.627 265.182 444.136C266.59 443.645 268.168 443.4 269.918 443.4C272.051 443.4 273.992 443.827 275.742 444.68C277.512 445.512 278.92 446.813 279.966 448.584C281.011 450.355 281.534 452.627 281.534 455.4V477H276.542V455.848C276.542 453.032 275.827 450.952 274.398 449.608C272.968 448.264 271.08 447.592 268.734 447.592C267.134 447.592 265.63 447.848 264.222 448.36C262.814 448.872 261.683 449.651 260.83 450.696C259.976 451.741 259.55 453.053 259.55 454.632V477H254.558ZM305.475 447.656H297.987V469C297.987 470.28 298.104 471.219 298.339 471.816C298.595 472.392 299.032 472.765 299.651 472.936C300.291 473.085 301.176 473.16 302.307 473.16H305.699V476.616C305.294 476.765 304.686 476.893 303.875 477C303.086 477.085 302.136 477.128 301.027 477.128C298.915 477.128 297.272 476.829 296.099 476.232C294.947 475.635 294.136 474.749 293.667 473.576C293.198 472.403 292.963 470.931 292.963 469.16V447.656H287.587V443.912H293.091L294.275 434.376H297.987V443.88H305.475V447.656ZM316.948 461.608C316.948 463.827 317.311 465.843 318.036 467.656C318.761 469.469 319.881 470.92 321.396 472.008C322.911 473.096 324.831 473.64 327.156 473.64C329.396 473.64 331.327 473.117 332.948 472.072C334.569 471.005 335.583 469.501 335.988 467.56H340.788C340.383 469.779 339.497 471.635 338.132 473.128C336.788 474.621 335.156 475.752 333.236 476.52C331.337 477.267 329.332 477.64 327.22 477.64C324.191 477.64 321.513 476.979 319.188 475.656C316.884 474.312 315.081 472.381 313.78 469.864C312.5 467.347 311.86 464.317 311.86 460.776C311.86 457.256 312.447 454.184 313.62 451.56C314.793 448.915 316.489 446.877 318.708 445.448C320.948 443.997 323.647 443.272 326.804 443.272C329.855 443.272 332.436 443.933 334.548 445.256C336.66 446.557 338.271 448.424 339.38 450.856C340.489 453.288 341.044 456.189 341.044 459.56V461.608H316.948ZM316.98 458.056H336.18C336.18 456.008 335.839 454.163 335.156 452.52C334.473 450.877 333.439 449.576 332.052 448.616C330.665 447.656 328.905 447.176 326.772 447.176C324.511 447.176 322.655 447.72 321.204 448.808C319.775 449.875 318.708 451.24 318.004 452.904C317.3 454.568 316.959 456.285 316.98 458.056ZM349.558 477V443.912H354.294V449.896C354.848 448.339 355.627 447.08 356.63 446.12C357.654 445.139 358.795 444.424 360.054 443.976C361.334 443.507 362.624 443.272 363.926 443.272C364.459 443.272 364.982 443.315 365.494 443.4C366.006 443.464 366.411 443.581 366.71 443.752V448.616C366.368 448.445 365.91 448.328 365.334 448.264C364.779 448.2 364.31 448.168 363.926 448.168C362.752 448.104 361.611 448.189 360.502 448.424C359.392 448.659 358.379 449.075 357.462 449.672C356.566 450.269 355.851 451.069 355.318 452.072C354.806 453.075 354.55 454.301 354.55 455.752V477H349.558ZM385.279 458.408V462.472L369.375 462.504V458.44L385.279 458.408ZM395.618 477V430.728H409.986C415.49 430.728 419.682 431.763 422.562 433.832C425.463 435.88 426.914 438.856 426.914 442.76C426.914 445.256 426.253 447.389 424.93 449.16C423.629 450.931 421.378 452.349 418.178 453.416C419.97 453.779 421.495 454.312 422.754 455.016C424.013 455.72 425.026 456.552 425.794 457.512C426.583 458.472 427.149 459.549 427.49 460.744C427.853 461.939 428.034 463.219 428.034 464.584C428.034 468.744 426.541 471.859 423.554 473.928C420.567 475.976 416.173 477 410.37 477H395.618ZM400.61 472.68H410.242C414.402 472.68 417.57 472.029 419.746 470.728C421.922 469.405 423.01 467.325 423.01 464.488C423.01 462.397 422.466 460.712 421.378 459.432C420.311 458.152 418.871 457.224 417.058 456.648C415.245 456.072 413.229 455.784 411.01 455.784H400.61V472.68ZM400.61 451.4H411.01C412.29 451.4 413.57 451.283 414.85 451.048C416.151 450.792 417.346 450.365 418.434 449.768C419.522 449.171 420.397 448.36 421.058 447.336C421.719 446.291 422.05 444.979 422.05 443.4C422.05 440.499 420.941 438.376 418.722 437.032C416.525 435.667 413.655 434.984 410.114 434.984H400.61V451.4ZM444.739 477.352C443.16 477.352 441.859 477.128 440.835 476.68C439.832 476.211 439.043 475.571 438.467 474.76C437.912 473.949 437.528 473.021 437.315 471.976C437.102 470.931 436.995 469.832 436.995 468.68V429.448H441.923V468.264C441.923 470.077 442.264 471.411 442.947 472.264C443.63 473.096 444.526 473.544 445.635 473.608L447.491 473.64V476.904C447.022 477.053 446.542 477.16 446.051 477.224C445.56 477.309 445.123 477.352 444.739 477.352ZM467.859 477.64C464.872 477.64 462.248 477 459.987 475.72C457.747 474.419 456.008 472.499 454.771 469.96C453.534 467.421 452.915 464.296 452.915 460.584C452.915 457.128 453.48 454.099 454.611 451.496C455.763 448.893 457.448 446.877 459.667 445.448C461.886 443.997 464.627 443.272 467.891 443.272C470.878 443.272 473.47 443.933 475.667 445.256C477.886 446.557 479.603 448.499 480.819 451.08C482.056 453.64 482.675 456.808 482.675 460.584C482.675 463.955 482.12 466.92 481.011 469.48C479.902 472.04 478.248 474.045 476.051 475.496C473.875 476.925 471.144 477.64 467.859 477.64ZM467.891 473.608C469.96 473.608 471.72 473.096 473.171 472.072C474.643 471.048 475.763 469.555 476.531 467.592C477.32 465.629 477.715 463.251 477.715 460.456C477.715 457.939 477.374 455.688 476.691 453.704C476.008 451.72 474.942 450.163 473.491 449.032C472.04 447.88 470.174 447.304 467.891 447.304C465.779 447.304 463.976 447.816 462.483 448.84C461.011 449.843 459.88 451.325 459.091 453.288C458.302 455.251 457.907 457.64 457.907 460.456C457.907 462.973 458.248 465.224 458.931 467.208C459.635 469.171 460.723 470.728 462.195 471.88C463.667 473.032 465.566 473.608 467.891 473.608ZM503.736 443.272C506.018 443.272 508.088 443.699 509.944 444.552C511.8 445.405 513.336 446.632 514.552 448.232C515.768 449.811 516.546 451.72 516.888 453.96H512.312C512.098 452.723 511.618 451.613 510.872 450.632C510.125 449.629 509.144 448.84 507.928 448.264C506.733 447.688 505.346 447.4 503.767 447.4C500.76 447.4 498.306 448.477 496.408 450.632C494.53 452.765 493.592 456.061 493.592 460.52C493.592 464.509 494.445 467.709 496.152 470.12C497.88 472.509 500.44 473.704 503.832 473.704C505.41 473.704 506.797 473.416 507.992 472.84C509.208 472.243 510.189 471.453 510.936 470.472C511.682 469.469 512.152 468.371 512.344 467.176H516.856C516.536 469.352 515.757 471.229 514.52 472.808C513.282 474.365 511.736 475.56 509.88 476.392C508.045 477.224 505.997 477.64 503.736 477.64C500.792 477.64 498.189 477 495.928 475.72C493.666 474.44 491.896 472.531 490.616 469.992C489.357 467.453 488.728 464.307 488.728 460.552C488.728 457.117 489.304 454.109 490.456 451.528C491.608 448.925 493.293 446.899 495.512 445.448C497.752 443.997 500.493 443.272 503.736 443.272ZM553.564 477H548.156L537.404 459.752L530.268 467.08V477H525.308V429.448H530.268V461.224L546.748 443.912H552.636L540.732 456.36L553.564 477ZM572.611 443.272C574.893 443.272 576.963 443.699 578.819 444.552C580.675 445.405 582.211 446.632 583.427 448.232C584.643 449.811 585.421 451.72 585.763 453.96H581.187C580.973 452.723 580.493 451.613 579.747 450.632C579 449.629 578.019 448.84 576.803 448.264C575.608 447.688 574.221 447.4 572.642 447.4C569.635 447.4 567.181 448.477 565.283 450.632C563.405 452.765 562.467 456.061 562.467 460.52C562.467 464.509 563.32 467.709 565.027 470.12C566.755 472.509 569.315 473.704 572.707 473.704C574.285 473.704 575.672 473.416 576.867 472.84C578.083 472.243 579.064 471.453 579.811 470.472C580.557 469.469 581.027 468.371 581.219 467.176H585.731C585.411 469.352 584.632 471.229 583.395 472.808C582.157 474.365 580.611 475.56 578.755 476.392C576.92 477.224 574.872 477.64 572.611 477.64C569.667 477.64 567.064 477 564.803 475.72C562.541 474.44 560.771 472.531 559.491 469.992C558.232 467.453 557.603 464.307 557.603 460.552C557.603 457.117 558.179 454.109 559.331 451.528C560.483 448.925 562.168 446.899 564.387 445.448C566.627 443.997 569.368 443.272 572.611 443.272ZM594.183 477V429.448H599.015V448.776C599.591 447.837 600.359 446.963 601.319 446.152C602.3 445.341 603.473 444.691 604.839 444.2C606.225 443.688 607.804 443.432 609.575 443.432C611.751 443.432 613.703 443.827 615.431 444.616C617.18 445.405 618.567 446.525 619.591 447.976C620.615 449.427 621.127 451.133 621.127 453.096V477H616.135V454.216C616.135 452.125 615.42 450.504 613.991 449.352C612.561 448.179 610.673 447.592 608.327 447.592C606.727 447.592 605.223 447.859 603.815 448.392C602.428 448.904 601.308 449.683 600.455 450.728C599.601 451.752 599.175 453.064 599.175 454.664V477H594.183ZM639.801 477.64C637.646 477.64 635.758 477.267 634.137 476.52C632.516 475.752 631.246 474.664 630.329 473.256C629.433 471.848 628.985 470.152 628.985 468.168C628.985 464.499 630.233 461.779 632.729 460.008C635.246 458.237 639.31 457.277 644.921 457.128L651.321 456.936V454.184C651.321 452.029 650.66 450.312 649.337 449.032C648.036 447.731 646.02 447.091 643.289 447.112C641.241 447.112 639.46 447.592 637.945 448.552C636.452 449.491 635.502 451.005 635.097 453.096H630.553C630.681 451.027 631.268 449.267 632.313 447.816C633.358 446.344 634.83 445.224 636.729 444.456C638.628 443.667 640.9 443.272 643.545 443.272C646.276 443.272 648.569 443.677 650.425 444.488C652.302 445.277 653.721 446.472 654.681 448.072C655.641 449.651 656.121 451.613 656.121 453.96V477H651.833L651.481 470.632C650.158 473.256 648.473 475.08 646.425 476.104C644.398 477.128 642.19 477.64 639.801 477.64ZM641.209 473.896C642.404 473.896 643.588 473.683 644.761 473.256C645.956 472.829 647.044 472.243 648.025 471.496C649.006 470.749 649.796 469.917 650.393 469C650.99 468.083 651.3 467.144 651.321 466.184V460.296L645.977 460.392C643.182 460.435 640.889 460.712 639.097 461.224C637.326 461.736 636.004 462.525 635.129 463.592C634.276 464.637 633.849 466.013 633.849 467.72C633.849 469.661 634.532 471.176 635.897 472.264C637.262 473.352 639.033 473.896 641.209 473.896ZM672.283 443.912V477H667.419V443.912H672.283ZM672.443 430.76V436.264H667.195V430.76H672.443ZM683.62 477V443.912H688.42V448.744C688.975 447.784 689.732 446.899 690.692 446.088C691.673 445.277 692.857 444.627 694.244 444.136C695.652 443.645 697.231 443.4 698.98 443.4C701.113 443.4 703.055 443.827 704.804 444.68C706.575 445.512 707.983 446.813 709.028 448.584C710.073 450.355 710.596 452.627 710.596 455.4V477H705.604V455.848C705.604 453.032 704.889 450.952 703.46 449.608C702.031 448.264 700.143 447.592 697.796 447.592C696.196 447.592 694.692 447.848 693.284 448.36C691.876 448.872 690.745 449.651 689.892 450.696C689.039 451.741 688.612 453.053 688.612 454.632V477H683.62ZM66.88 494.088C70.08 494.088 72.9173 494.76 75.392 496.104C77.8667 497.448 79.8507 499.229 81.344 501.448C82.8373 503.667 83.7227 506.077 84 508.68H78.624C78.2613 506.824 77.5787 505.128 76.576 503.592C75.5947 502.056 74.2827 500.829 72.64 499.912C70.9973 498.995 69.0453 498.536 66.784 498.536C63.7973 498.536 61.28 499.229 59.232 500.616C57.2053 502.003 55.6693 504.125 54.624 506.984C53.6 509.821 53.088 513.437 53.088 517.832C53.088 524.445 54.24 529.32 56.544 532.456C58.8693 535.592 62.2827 537.16 66.784 537.16C69.0453 537.16 70.9973 536.691 72.64 535.752C74.2827 534.792 75.5947 533.533 76.576 531.976C77.5787 530.397 78.2613 528.68 78.624 526.824H84C83.7653 528.723 83.232 530.568 82.4 532.36C81.5893 534.131 80.4693 535.72 79.04 537.128C77.632 538.515 75.904 539.613 73.856 540.424C71.8293 541.235 69.504 541.64 66.88 541.64C62.7627 541.64 59.264 540.712 56.384 538.856C53.5253 536.979 51.3387 534.269 49.824 530.728C48.3093 527.165 47.552 522.845 47.552 517.768C47.552 512.691 48.2987 508.392 49.792 504.872C51.3067 501.352 53.504 498.675 56.384 496.84C59.264 495.005 62.7627 494.088 66.88 494.088ZM105.422 541.64C102.435 541.64 99.8108 541 97.5495 539.72C95.3095 538.419 93.5708 536.499 92.3335 533.96C91.0962 531.421 90.4775 528.296 90.4775 524.584C90.4775 521.128 91.0428 518.099 92.1735 515.496C93.3255 512.893 95.0108 510.877 97.2295 509.448C99.4482 507.997 102.19 507.272 105.454 507.272C108.44 507.272 111.032 507.933 113.23 509.256C115.448 510.557 117.166 512.499 118.382 515.08C119.619 517.64 120.238 520.808 120.238 524.584C120.238 527.955 119.683 530.92 118.574 533.48C117.464 536.04 115.811 538.045 113.614 539.496C111.438 540.925 108.707 541.64 105.422 541.64ZM105.454 537.608C107.523 537.608 109.283 537.096 110.734 536.072C112.206 535.048 113.326 533.555 114.094 531.592C114.883 529.629 115.278 527.251 115.278 524.456C115.278 521.939 114.936 519.688 114.254 517.704C113.571 515.72 112.504 514.163 111.054 513.032C109.603 511.88 107.736 511.304 105.454 511.304C103.342 511.304 101.539 511.816 100.046 512.84C98.5735 513.843 97.4428 515.325 96.6535 517.288C95.8642 519.251 95.4695 521.64 95.4695 524.456C95.4695 526.973 95.8108 529.224 96.4935 531.208C97.1975 533.171 98.2855 534.728 99.7575 535.88C101.23 537.032 103.128 537.608 105.454 537.608ZM128.37 541V507.912H133.17V512.744C134.045 511.272 135.261 509.992 136.818 508.904C138.397 507.816 140.466 507.272 143.026 507.272C144.263 507.272 145.511 507.475 146.77 507.88C148.029 508.285 149.181 508.893 150.226 509.704C151.271 510.515 152.071 511.517 152.626 512.712C153.65 511.048 155.037 509.725 156.786 508.744C158.535 507.763 160.519 507.272 162.738 507.272C163.89 507.272 165.085 507.443 166.322 507.784C167.581 508.125 168.754 508.733 169.842 509.608C170.93 510.461 171.805 511.688 172.466 513.288C173.149 514.867 173.49 516.904 173.49 519.4V541H168.498V519.848C168.498 517.651 168.157 515.965 167.474 514.792C166.791 513.597 165.906 512.765 164.818 512.296C163.73 511.827 162.567 511.592 161.33 511.592C160.221 511.592 159.047 511.805 157.81 512.232C156.594 512.637 155.549 513.352 154.674 514.376C153.821 515.4 153.394 516.819 153.394 518.632V541H148.402V517.864C148.402 516.477 148.029 515.325 147.282 514.408C146.557 513.469 145.65 512.765 144.562 512.296C143.474 511.827 142.386 511.592 141.298 511.592C140.103 511.592 138.887 511.827 137.65 512.296C136.434 512.765 135.41 513.523 134.578 514.568C133.767 515.613 133.362 516.968 133.362 518.632V541H128.37ZM183.183 541V507.912H187.983V512.744C188.857 511.272 190.073 509.992 191.631 508.904C193.209 507.816 195.279 507.272 197.839 507.272C199.076 507.272 200.324 507.475 201.583 507.88C202.841 508.285 203.993 508.893 205.039 509.704C206.084 510.515 206.884 511.517 207.439 512.712C208.463 511.048 209.849 509.725 211.599 508.744C213.348 507.763 215.332 507.272 217.551 507.272C218.703 507.272 219.897 507.443 221.135 507.784C222.393 508.125 223.567 508.733 224.655 509.608C225.743 510.461 226.617 511.688 227.279 513.288C227.961 514.867 228.303 516.904 228.303 519.4V541H223.311V519.848C223.311 517.651 222.969 515.965 222.287 514.792C221.604 513.597 220.719 512.765 219.631 512.296C218.543 511.827 217.38 511.592 216.143 511.592C215.033 511.592 213.86 511.805 212.623 512.232C211.407 512.637 210.361 513.352 209.487 514.376C208.633 515.4 208.207 516.819 208.207 518.632V541H203.215V517.864C203.215 516.477 202.841 515.325 202.095 514.408C201.369 513.469 200.463 512.765 199.375 512.296C198.287 511.827 197.199 511.592 196.111 511.592C194.916 511.592 193.7 511.827 192.463 512.296C191.247 512.765 190.223 513.523 189.391 514.568C188.58 515.613 188.175 516.968 188.175 518.632V541H183.183ZM249.593 541.64C247.822 541.619 246.169 541.373 244.633 540.904C243.097 540.413 241.742 539.699 240.569 538.76C239.417 537.8 238.51 536.616 237.849 535.208C237.209 533.779 236.889 532.125 236.889 530.248V507.912H241.881V529.8C241.881 532.125 242.585 534.013 243.993 535.464C245.401 536.893 247.566 537.608 250.489 537.608C253.091 537.608 255.182 536.936 256.761 535.592C258.339 534.227 259.129 532.168 259.129 529.416V507.912H264.089V541H260.057L259.545 534.728C259.161 536.307 258.489 537.608 257.529 538.632C256.59 539.656 255.438 540.424 254.073 540.936C252.729 541.427 251.235 541.661 249.593 541.64ZM274.245 541V507.912H279.045V512.744C279.6 511.784 280.357 510.899 281.317 510.088C282.298 509.277 283.482 508.627 284.869 508.136C286.277 507.645 287.856 507.4 289.605 507.4C291.738 507.4 293.68 507.827 295.429 508.68C297.2 509.512 298.608 510.813 299.653 512.584C300.698 514.355 301.221 516.627 301.221 519.4V541H296.229V519.848C296.229 517.032 295.514 514.952 294.085 513.608C292.656 512.264 290.768 511.592 288.421 511.592C286.821 511.592 285.317 511.848 283.909 512.36C282.501 512.872 281.37 513.651 280.517 514.696C279.664 515.741 279.237 517.053 279.237 518.632V541H274.245ZM316.47 507.912V541H311.606V507.912H316.47ZM316.63 494.76V500.264H311.382V494.76H316.63ZM340.298 507.272C342.581 507.272 344.65 507.699 346.506 508.552C348.362 509.405 349.898 510.632 351.114 512.232C352.33 513.811 353.109 515.72 353.45 517.96H348.874C348.661 516.723 348.181 515.613 347.434 514.632C346.687 513.629 345.706 512.84 344.49 512.264C343.295 511.688 341.909 511.4 340.33 511.4C337.322 511.4 334.869 512.477 332.97 514.632C331.093 516.765 330.154 520.061 330.154 524.52C330.154 528.509 331.007 531.709 332.714 534.12C334.442 536.509 337.002 537.704 340.394 537.704C341.973 537.704 343.359 537.416 344.554 536.84C345.77 536.243 346.751 535.453 347.498 534.472C348.245 533.469 348.714 532.371 348.906 531.176H353.418C353.098 533.352 352.319 535.229 351.082 536.808C349.845 538.365 348.298 539.56 346.442 540.392C344.607 541.224 342.559 541.64 340.298 541.64C337.354 541.64 334.751 541 332.49 539.72C330.229 538.44 328.458 536.531 327.178 533.992C325.919 531.453 325.29 528.307 325.29 524.552C325.29 521.117 325.866 518.109 327.018 515.528C328.17 512.925 329.855 510.899 332.074 509.448C334.314 507.997 337.055 507.272 340.298 507.272ZM370.489 541.64C368.334 541.64 366.446 541.267 364.825 540.52C363.203 539.752 361.934 538.664 361.016 537.256C360.121 535.848 359.673 534.152 359.673 532.168C359.673 528.499 360.921 525.779 363.417 524.008C365.934 522.237 369.998 521.277 375.609 521.128L382.009 520.936V518.184C382.009 516.029 381.347 514.312 380.025 513.032C378.723 511.731 376.707 511.091 373.977 511.112C371.929 511.112 370.147 511.592 368.633 512.552C367.139 513.491 366.19 515.005 365.785 517.096H361.241C361.369 515.027 361.955 513.267 363.001 511.816C364.046 510.344 365.518 509.224 367.417 508.456C369.315 507.667 371.587 507.272 374.233 507.272C376.963 507.272 379.257 507.677 381.113 508.488C382.99 509.277 384.409 510.472 385.369 512.072C386.329 513.651 386.809 515.613 386.809 517.96V541H382.521L382.169 534.632C380.846 537.256 379.161 539.08 377.113 540.104C375.086 541.128 372.878 541.64 370.489 541.64ZM371.897 537.896C373.091 537.896 374.275 537.683 375.449 537.256C376.643 536.829 377.731 536.243 378.713 535.496C379.694 534.749 380.483 533.917 381.081 533C381.678 532.083 381.987 531.144 382.009 530.184V524.296L376.665 524.392C373.87 524.435 371.577 524.712 369.785 525.224C368.014 525.736 366.691 526.525 365.817 527.592C364.963 528.637 364.536 530.013 364.536 531.72C364.536 533.661 365.219 535.176 366.585 536.264C367.95 537.352 369.721 537.896 371.897 537.896ZM411.663 511.656H404.175V533C404.175 534.28 404.292 535.219 404.527 535.816C404.783 536.392 405.22 536.765 405.839 536.936C406.479 537.085 407.364 537.16 408.495 537.16H411.887V540.616C411.481 540.765 410.873 540.893 410.062 541C409.273 541.085 408.324 541.128 407.215 541.128C405.103 541.128 403.46 540.829 402.287 540.232C401.135 539.635 400.324 538.749 399.855 537.576C399.385 536.403 399.151 534.931 399.151 533.16V511.656H393.775V507.912H399.279L400.463 498.376H404.175V507.88H411.663V511.656ZM426.22 507.912V541H421.356V507.912H426.22ZM426.38 494.76V500.264H421.132V494.76H426.38ZM449.984 541.64C446.997 541.64 444.373 541 442.112 539.72C439.872 538.419 438.133 536.499 436.896 533.96C435.659 531.421 435.04 528.296 435.04 524.584C435.04 521.128 435.605 518.099 436.736 515.496C437.888 512.893 439.573 510.877 441.792 509.448C444.011 507.997 446.752 507.272 450.016 507.272C453.003 507.272 455.595 507.933 457.792 509.256C460.011 510.557 461.728 512.499 462.944 515.08C464.181 517.64 464.8 520.808 464.8 524.584C464.8 527.955 464.245 530.92 463.136 533.48C462.027 536.04 460.373 538.045 458.176 539.496C456 540.925 453.269 541.64 449.984 541.64ZM450.016 537.608C452.085 537.608 453.845 537.096 455.296 536.072C456.768 535.048 457.888 533.555 458.656 531.592C459.445 529.629 459.84 527.251 459.84 524.456C459.84 521.939 459.499 519.688 458.816 517.704C458.133 515.72 457.067 514.163 455.616 513.032C454.165 511.88 452.299 511.304 450.016 511.304C447.904 511.304 446.101 511.816 444.608 512.84C443.136 513.843 442.005 515.325 441.216 517.288C440.427 519.251 440.032 521.64 440.032 524.456C440.032 526.973 440.373 529.224 441.056 531.208C441.76 533.171 442.848 534.728 444.32 535.88C445.792 537.032 447.691 537.608 450.016 537.608ZM472.933 541V507.912H477.733V512.744C478.287 511.784 479.045 510.899 480.005 510.088C480.986 509.277 482.17 508.627 483.557 508.136C484.965 507.645 486.543 507.4 488.293 507.4C490.426 507.4 492.367 507.827 494.117 508.68C495.887 509.512 497.295 510.813 498.341 512.584C499.386 514.355 499.909 516.627 499.909 519.4V541H494.917V519.848C494.917 517.032 494.202 514.952 492.773 513.608C491.343 512.264 489.455 511.592 487.109 511.592C485.509 511.592 484.005 511.848 482.597 512.36C481.189 512.872 480.058 513.651 479.205 514.696C478.351 515.741 477.925 517.053 477.925 518.632V541H472.933ZM525.868 541V494.728H541.132C544.417 494.728 547.34 495.283 549.9 496.392C552.481 497.48 554.497 499.101 555.948 501.256C557.42 503.389 558.156 506.035 558.156 509.192C558.156 512.285 557.463 514.92 556.076 517.096C554.689 519.251 552.769 520.893 550.316 522.024C547.884 523.155 545.057 523.72 541.836 523.72H531.052V541H525.868ZM531.02 519.336H541.74C545.132 519.336 547.884 518.408 549.996 516.552C552.129 514.696 553.196 512.147 553.196 508.904C553.196 505.619 552.108 503.155 549.932 501.512C547.756 499.869 544.908 499.048 541.388 499.048H531.02V519.336ZM565.058 541V507.912H569.794V513.896C570.348 512.339 571.127 511.08 572.13 510.12C573.154 509.139 574.295 508.424 575.554 507.976C576.834 507.507 578.124 507.272 579.426 507.272C579.959 507.272 580.482 507.315 580.994 507.4C581.506 507.464 581.911 507.581 582.21 507.752V512.616C581.868 512.445 581.41 512.328 580.834 512.264C580.279 512.2 579.81 512.168 579.426 512.168C578.252 512.104 577.111 512.189 576.002 512.424C574.892 512.659 573.879 513.075 572.962 513.672C572.066 514.269 571.351 515.069 570.818 516.072C570.306 517.075 570.05 518.301 570.05 519.752V541H565.058ZM601.547 541.64C598.56 541.64 595.936 541 593.675 539.72C591.435 538.419 589.696 536.499 588.459 533.96C587.221 531.421 586.603 528.296 586.603 524.584C586.603 521.128 587.168 518.099 588.299 515.496C589.451 512.893 591.136 510.877 593.355 509.448C595.573 507.997 598.315 507.272 601.579 507.272C604.565 507.272 607.157 507.933 609.355 509.256C611.573 510.557 613.291 512.499 614.507 515.08C615.744 517.64 616.363 520.808 616.363 524.584C616.363 527.955 615.808 530.92 614.699 533.48C613.589 536.04 611.936 538.045 609.739 539.496C607.563 540.925 604.832 541.64 601.547 541.64ZM601.579 537.608C603.648 537.608 605.408 537.096 606.859 536.072C608.331 535.048 609.451 533.555 610.219 531.592C611.008 529.629 611.403 527.251 611.403 524.456C611.403 521.939 611.061 519.688 610.379 517.704C609.696 515.72 608.629 514.163 607.179 513.032C605.728 511.88 603.861 511.304 601.579 511.304C599.467 511.304 597.664 511.816 596.171 512.84C594.699 513.843 593.568 515.325 592.779 517.288C591.989 519.251 591.595 521.64 591.595 524.456C591.595 526.973 591.936 529.224 592.619 531.208C593.323 533.171 594.411 534.728 595.883 535.88C597.355 537.032 599.253 537.608 601.579 537.608ZM639.35 511.656H631.862V533C631.862 534.28 631.979 535.219 632.214 535.816C632.47 536.392 632.907 536.765 633.526 536.936C634.166 537.085 635.051 537.16 636.182 537.16H639.574V540.616C639.169 540.765 638.561 540.893 637.75 541C636.961 541.085 636.011 541.128 634.902 541.128C632.79 541.128 631.147 540.829 629.974 540.232C628.822 539.635 628.011 538.749 627.542 537.576C627.073 536.403 626.838 534.931 626.838 533.16V511.656H621.462V507.912H626.966L628.15 498.376H631.862V507.88H639.35V511.656ZM660.359 541.64C657.372 541.64 654.748 541 652.487 539.72C650.247 538.419 648.508 536.499 647.271 533.96C646.034 531.421 645.415 528.296 645.415 524.584C645.415 521.128 645.98 518.099 647.111 515.496C648.263 512.893 649.948 510.877 652.167 509.448C654.386 507.997 657.127 507.272 660.391 507.272C663.378 507.272 665.97 507.933 668.167 509.256C670.386 510.557 672.103 512.499 673.319 515.08C674.556 517.64 675.175 520.808 675.175 524.584C675.175 527.955 674.62 530.92 673.511 533.48C672.402 536.04 670.748 538.045 668.551 539.496C666.375 540.925 663.644 541.64 660.359 541.64ZM660.391 537.608C662.46 537.608 664.22 537.096 665.671 536.072C667.143 535.048 668.263 533.555 669.031 531.592C669.82 529.629 670.215 527.251 670.215 524.456C670.215 521.939 669.874 519.688 669.191 517.704C668.508 515.72 667.442 514.163 665.991 513.032C664.54 511.88 662.674 511.304 660.391 511.304C658.279 511.304 656.476 511.816 654.983 512.84C653.511 513.843 652.38 515.325 651.591 517.288C650.802 519.251 650.407 521.64 650.407 524.456C650.407 526.973 650.748 529.224 651.431 531.208C652.135 533.171 653.223 534.728 654.695 535.88C656.167 537.032 658.066 537.608 660.391 537.608ZM696.236 507.272C698.518 507.272 700.588 507.699 702.444 508.552C704.3 509.405 705.836 510.632 707.052 512.232C708.268 513.811 709.046 515.72 709.388 517.96H704.812C704.598 516.723 704.118 515.613 703.372 514.632C702.625 513.629 701.644 512.84 700.428 512.264C699.233 511.688 697.846 511.4 696.267 511.4C693.26 511.4 690.806 512.477 688.908 514.632C687.03 516.765 686.092 520.061 686.092 524.52C686.092 528.509 686.945 531.709 688.652 534.12C690.38 536.509 692.94 537.704 696.332 537.704C697.91 537.704 699.297 537.416 700.492 536.84C701.708 536.243 702.689 535.453 703.436 534.472C704.182 533.469 704.652 532.371 704.844 531.176H709.356C709.036 533.352 708.257 535.229 707.02 536.808C705.782 538.365 704.236 539.56 702.38 540.392C700.545 541.224 698.497 541.64 696.236 541.64C693.292 541.64 690.689 541 688.428 539.72C686.166 538.44 684.396 536.531 683.116 533.992C681.857 531.453 681.228 528.307 681.228 524.552C681.228 521.117 681.804 518.109 682.956 515.528C684.108 512.925 685.793 510.899 688.012 509.448C690.252 507.997 692.993 507.272 696.236 507.272ZM730.672 541.64C727.685 541.64 725.061 541 722.8 539.72C720.56 538.419 718.821 536.499 717.584 533.96C716.346 531.421 715.728 528.296 715.728 524.584C715.728 521.128 716.293 518.099 717.424 515.496C718.576 512.893 720.261 510.877 722.48 509.448C724.698 507.997 727.44 507.272 730.704 507.272C733.69 507.272 736.282 507.933 738.48 509.256C740.698 510.557 742.416 512.499 743.632 515.08C744.869 517.64 745.488 520.808 745.488 524.584C745.488 527.955 744.933 530.92 743.824 533.48C742.714 536.04 741.061 538.045 738.864 539.496C736.688 540.925 733.957 541.64 730.672 541.64ZM730.704 537.608C732.773 537.608 734.533 537.096 735.984 536.072C737.456 535.048 738.576 533.555 739.344 531.592C740.133 529.629 740.528 527.251 740.528 524.456C740.528 521.939 740.186 519.688 739.504 517.704C738.821 515.72 737.754 514.163 736.304 513.032C734.853 511.88 732.986 511.304 730.704 511.304C728.592 511.304 726.789 511.816 725.296 512.84C723.824 513.843 722.693 515.325 721.904 517.288C721.114 519.251 720.72 521.64 720.72 524.456C720.72 526.973 721.061 529.224 721.744 531.208C722.448 533.171 723.536 534.728 725.008 535.88C726.48 537.032 728.378 537.608 730.704 537.608ZM761.364 541.352C759.785 541.352 758.484 541.128 757.46 540.68C756.457 540.211 755.668 539.571 755.092 538.76C754.537 537.949 754.153 537.021 753.94 535.976C753.727 534.931 753.62 533.832 753.62 532.68V493.448H758.548V532.264C758.548 534.077 758.889 535.411 759.572 536.264C760.255 537.096 761.151 537.544 762.26 537.608L764.116 537.64V540.904C763.647 541.053 763.167 541.16 762.676 541.224C762.185 541.309 761.748 541.352 761.364 541.352Z" fill="black"/>
<path d="M78.5 172.6V276H63.3V172.6H78.5ZM79 131.5V148.7H62.6V131.5H79ZM153.33 278C146.996 278 141.663 277.167 137.33 275.5C133.063 273.767 129.596 271.633 126.93 269.1C124.263 266.567 122.23 264 120.83 261.4C119.43 258.8 118.43 256.6 117.83 254.8L116.23 276H103.93V127.4H119.73V189.6C120.463 188.067 121.696 186.233 123.43 184.1C125.163 181.967 127.43 179.867 130.23 177.8C133.03 175.733 136.43 174.033 140.43 172.7C144.43 171.3 149.063 170.6 154.33 170.6C167.263 170.6 177.596 175.067 185.33 184C193.063 192.933 196.93 206.233 196.93 223.9C196.93 234.767 195.296 244.267 192.03 252.4C188.83 260.467 183.996 266.767 177.53 271.3C171.13 275.767 163.063 278 153.33 278ZM150.83 265.6C159.83 265.6 167.096 262.167 172.63 255.3C178.23 248.433 181.03 237.633 181.03 222.9C181.03 210.5 178.463 200.767 173.33 193.7C168.196 186.633 160.563 183.1 150.43 183.1C143.03 183.1 137.096 184.7 132.63 187.9C128.163 191.033 124.896 195.567 122.83 201.5C120.83 207.433 119.796 214.567 119.73 222.9C119.73 237.967 122.096 248.867 126.83 255.6C131.563 262.267 139.563 265.6 150.83 265.6ZM252.884 170.6C260.018 170.6 266.484 171.933 272.284 174.6C278.084 177.267 282.884 181.1 286.684 186.1C290.484 191.033 292.918 197 293.984 204H279.684C279.018 200.133 277.518 196.667 275.184 193.6C272.851 190.467 269.784 188 265.984 186.2C262.251 184.4 257.918 183.5 252.984 183.5C243.584 183.5 235.918 186.867 229.984 193.6C224.118 200.267 221.184 210.567 221.184 224.5C221.184 236.967 223.851 246.967 229.184 254.5C234.584 261.967 242.584 265.7 253.184 265.7C258.118 265.7 262.451 264.8 266.184 263C269.984 261.133 273.051 258.667 275.384 255.6C277.718 252.467 279.184 249.033 279.784 245.3H293.884C292.884 252.1 290.451 257.967 286.584 262.9C282.718 267.767 277.884 271.5 272.084 274.1C266.351 276.7 259.951 278 252.884 278C243.684 278 235.551 276 228.484 272C221.418 268 215.884 262.033 211.884 254.1C207.951 246.167 205.984 236.333 205.984 224.6C205.984 213.867 207.784 204.467 211.384 196.4C214.984 188.267 220.251 181.933 227.184 177.4C234.184 172.867 242.751 170.6 252.884 170.6ZM358.45 217.9V230.6L308.75 230.7V218L358.45 217.9ZM413.045 278C405.845 278 399.212 276.9 393.145 274.7C387.145 272.433 382.179 269 378.245 264.4C374.379 259.733 371.945 253.8 370.945 246.6H385.445C386.379 250.733 388.079 254.233 390.545 257.1C393.012 259.967 396.145 262.167 399.945 263.7C403.812 265.167 408.179 265.9 413.045 265.9C420.379 265.9 426.279 264.5 430.745 261.7C435.212 258.833 437.445 254.467 437.445 248.6C437.445 244.533 436.279 241.267 433.945 238.8C431.679 236.333 428.212 234.533 423.545 233.4L401.245 227.7C393.112 225.633 386.645 222.533 381.845 218.4C377.045 214.2 374.612 208.367 374.545 200.9C374.545 194.967 375.945 189.733 378.745 185.2C381.612 180.667 385.879 177.1 391.545 174.5C397.212 171.9 404.312 170.6 412.845 170.6C423.712 170.6 432.479 173.033 439.145 177.9C445.812 182.767 449.345 190.033 449.745 199.7H435.545C434.879 194.433 432.612 190.267 428.745 187.2C424.879 184.067 419.545 182.5 412.745 182.5C405.745 182.5 400.045 183.933 395.645 186.8C391.312 189.667 389.145 194.1 389.145 200.1C389.145 204.1 390.645 207.233 393.645 209.5C396.645 211.7 401.012 213.533 406.745 215L428.545 220.7C433.079 221.9 436.812 223.5 439.745 225.5C442.745 227.433 445.112 229.633 446.845 232.1C448.645 234.5 449.912 237.067 450.645 239.8C451.445 242.533 451.845 245.167 451.845 247.7C451.845 253.9 450.345 259.267 447.345 263.8C444.345 268.333 439.945 271.833 434.145 274.3C428.412 276.767 421.379 278 413.045 278ZM509.208 278C499.874 278 491.674 276 484.608 272C477.608 267.933 472.174 261.933 468.308 254C464.441 246.067 462.508 236.3 462.508 224.7C462.508 213.9 464.274 204.433 467.808 196.3C471.408 188.167 476.674 181.867 483.608 177.4C490.541 172.867 499.108 170.6 509.308 170.6C518.641 170.6 526.741 172.667 533.608 176.8C540.541 180.867 545.908 186.933 549.708 195C553.574 203 555.508 212.9 555.508 224.7C555.508 235.233 553.774 244.5 550.308 252.5C546.841 260.5 541.674 266.767 534.808 271.3C528.008 275.767 519.474 278 509.208 278ZM509.308 265.4C515.774 265.4 521.274 263.8 525.808 260.6C530.408 257.4 533.908 252.733 536.308 246.6C538.774 240.467 540.008 233.033 540.008 224.3C540.008 216.433 538.941 209.4 536.808 203.2C534.674 197 531.341 192.133 526.808 188.6C522.274 185 516.441 183.2 509.308 183.2C502.708 183.2 497.074 184.8 492.408 188C487.808 191.133 484.274 195.767 481.808 201.9C479.341 208.033 478.108 215.5 478.108 224.3C478.108 232.167 479.174 239.2 481.308 245.4C483.508 251.533 486.908 256.4 491.508 260C496.108 263.6 502.041 265.4 509.308 265.4ZM595.122 277.1C590.189 277.1 586.122 276.4 582.922 275C579.789 273.533 577.322 271.533 575.522 269C573.789 266.467 572.589 263.567 571.922 260.3C571.255 257.033 570.922 253.6 570.922 250V127.4H586.322V248.7C586.322 254.367 587.389 258.533 589.522 261.2C591.655 263.8 594.455 265.2 597.922 265.4L603.722 265.5V275.7C602.255 276.167 600.755 276.5 599.222 276.7C597.689 276.967 596.322 277.1 595.122 277.1ZM636.234 172.6V276H621.034V172.6H636.234ZM636.734 131.5V148.7H620.334V131.5H636.734ZM697.397 278C684.064 278 673.464 273.467 665.597 264.4C657.73 255.267 653.797 241.767 653.797 223.9C653.797 213.167 655.364 203.833 658.497 195.9C661.63 187.9 666.33 181.7 672.597 177.3C678.93 172.833 686.83 170.6 696.297 170.6C701.63 170.6 706.297 171.3 710.297 172.7C714.297 174.033 717.697 175.733 720.497 177.8C723.297 179.867 725.564 181.967 727.297 184.1C729.03 186.233 730.264 188.067 730.997 189.6V127.4H746.797V276H734.497L732.897 254.8C732.297 256.6 731.297 258.8 729.897 261.4C728.497 264 726.464 266.567 723.797 269.1C721.13 271.633 717.63 273.767 713.297 275.5C708.964 277.167 703.664 278 697.397 278ZM699.797 265.6C711.13 265.6 719.164 262.267 723.897 255.6C728.63 248.867 730.997 237.967 730.997 222.9C730.93 214.567 729.864 207.433 727.797 201.5C725.73 195.567 722.464 191.033 717.997 187.9C713.597 184.7 707.697 183.1 700.297 183.1C691.164 183.1 683.764 186.3 678.097 192.7C672.497 199.1 669.697 209.167 669.697 222.9C669.697 236.233 672.197 246.7 677.197 254.3C682.264 261.833 689.797 265.6 699.797 265.6ZM787.719 172.6V276H772.519V172.6H787.719ZM788.219 131.5V148.7H771.819V131.5H788.219ZM863.281 184.3H839.881V251C839.881 255 840.248 257.933 840.981 259.8C841.781 261.6 843.148 262.767 845.081 263.3C847.081 263.767 849.848 264 853.381 264H863.981V274.8C862.715 275.267 860.815 275.667 858.281 276C855.815 276.267 852.848 276.4 849.381 276.4C842.781 276.4 837.648 275.467 833.981 273.6C830.381 271.733 827.848 268.967 826.381 265.3C824.915 261.633 824.181 257.033 824.181 251.5V184.3H807.381V172.6H824.581L828.281 142.8H839.881V172.5H863.281V184.3ZM890.655 309C884.855 309 880.921 308.6 878.855 307.8C876.788 307.067 875.755 306.7 875.755 306.7V296.5L886.355 296.6C890.021 296.733 893.088 296.467 895.555 295.8C898.088 295.133 900.121 294.2 901.655 293C903.188 291.867 904.388 290.567 905.255 289.1C906.188 287.7 906.955 286.3 907.555 284.9L911.655 274L871.255 172.6H887.055L919.155 255.8L950.855 172.6H966.155L922.155 285.7C919.688 291.7 916.888 296.367 913.755 299.7C910.688 303.1 907.221 305.5 903.355 306.9C899.488 308.3 895.255 309 890.655 309Z" fill="black"/>
<defs>
<clipPath id="clip0_1454_4602">
<rect width="205" height="122" fill="white" transform="translate(1016 419)"/>
</clipPath>
</defs>
</svg>
